<svg width="331" height="331" viewBox="0 0 331 331" fill="none" xmlns="http://www.w3.org/2000/svg">
<path d="M295.483 243.437C290.769 251.326 282.675 256.731 272.005 259.717C261.332 262.705 248.11 263.262 233.208 261.472C203.405 257.893 166.98 244.934 131.014 223.427C95.0475 201.919 66.391 175.958 49.1273 151.392C40.4951 139.109 34.7251 127.193 32.3012 116.374C29.8781 105.558 30.8038 95.8666 35.5176 87.9771C40.2313 80.0876 48.3253 74.6829 58.995 71.6964C69.6682 68.709 82.8904 68.1512 97.7923 69.9412C127.595 73.5209 164.02 86.4792 199.986 107.987C235.953 129.495 264.609 155.456 281.873 180.022C290.505 192.305 296.275 204.22 298.699 215.04C301.122 225.856 300.196 235.547 295.483 243.437Z" stroke="#F9BA96"/>
<path d="M290.956 250.556C280.557 265.944 257.18 270.632 227.505 265.49C197.88 260.357 162.191 245.453 127.478 221.975C92.7646 198.498 65.64 170.919 49.8386 145.329C34.0102 119.696 29.647 96.2456 40.0452 80.8576C50.4435 65.4695 73.8207 60.7813 103.496 65.9233C133.121 71.0564 168.81 85.9607 203.523 109.438C238.236 132.916 265.361 160.494 281.162 186.084C296.991 211.718 301.354 235.168 290.956 250.556Z" stroke="#FEB4DE"/>
<ellipse cx="49.328" cy="75.5" rx="2.4989" ry="2.5" fill="#FEB4DE"/>
<ellipse cx="270.382" cy="264.5" rx="2.4989" ry="2.5" fill="#F9BA96"/>
</svg>
